<svg version="1.2" xmlns="http://www.w3.org/2000/svg" viewBox="0 0 102 90" width="100%" height="100%">
	<title>faucet-svg</title>
	<style>
		.s0 { fill: currentColor } 
	</style>
	<path id="Layer" fill-rule="evenodd" class="s0" d="m89.4 21.7v30.2c0 1-0.5 2-1.3 2.7-0.8 0.6-1.9 0.8-2.9 0.5l-8.9-2.5c-1.5-0.4-2.5-1.7-2.5-3.2v-2.6h-34.5c-1.2 0-2.2 1-2.2 2.2v1.1c2.5 0 4.5 2 4.5 4.5v3.2c-0.1 2.4-2.1 4.4-4.5 4.4h-20c-2.5 0-4.5-2.1-4.5-4.5v-3.2c0-2.5 2-4.6 4.5-4.6v-12.5c0-5.9 4.8-10.8 10.8-10.8h15.7v-6.2h3.7v-8h-6.5c-2.4 0-4.5-2-4.5-4.5v-1.6c0-2.5 2.1-4.5 4.5-4.5h23.6c1.2 0 2.4 0.5 3.2 1.4 0.9 0.8 1.3 2 1.3 3.2v1.6c0 2.4-2 4.5-4.5 4.5h-6.4v8.1h3.7v6.2h12.1v-2.6c0-1.5 1-2.8 2.5-3.2l8.9-2.6c1-0.2 2.1 0 2.9 0.6 0.8 0.6 1.3 1.6 1.3 2.7zm-48.6-12.2h23.6c0.4 0 0.8-0.1 1.1-0.4 0.3-0.3 0.5-0.7 0.5-1.1v-1.6c0-0.4-0.2-0.8-0.5-1.1-0.3-0.3-0.7-0.5-1.1-0.5h-23.5c-0.9 0-1.6 0.7-1.6 1.6v1.6c0 0.8 0.7 1.5 1.5 1.5zm9.5 11h4.7v-8h-4.7zm-3.7 6.3h12.1v-3.4h-12.1zm-9.5 26.3h-20c-0.9 0-1.6 0.7-1.6 1.5v3.2c0 0.9 0.7 1.6 1.6 1.6h19.9c0.4 0 0.8-0.2 1.1-0.5 0.3-0.2 0.5-0.6 0.5-1.1v-3.2c0-0.8-0.7-1.5-1.5-1.5zm36.7-9.3v-14.1h-46c-4.3 0-7.8 3.5-7.8 7.9v12.5h14.1c-0.2-1.6 0.2-3.2 1.2-4.4 1-1.2 2.5-1.9 4-1.9zm12.6-22.2q0-0.1-0.2-0.2-0.1-0.1-0.2 0l-8.9 2.5c-0.2 0-0.3 0.1-0.3 0.3v25.2c0 0.2 0.1 0.3 0.3 0.3l8.9 2.5q0.1 0.1 0.3 0 0.1-0.1 0.1-0.3z"/>
	<path id="Layer" fill-rule="evenodd" class="s0" d="m31.1 79.2c0 3.8-3.1 7-7 7-3.9 0-7-3.2-7-7 0.5-4.8 5.2-11.3 7-14.2 1.8 2.9 6.6 9.3 7 14.2zm-4.2 2.8c0.8-0.8 1.2-1.8 1.2-2.8 0-1.5-2-5.5-4-8.7-1.9 3.3-4 7.2-4 8.7 0 2.2 1.8 4 4 4 1.1 0 2.1-0.4 2.8-1.2z"/>
</svg>